<svg width="23" height="50" viewBox="0 0 23 50" xmlns="http://www.w3.org/2000/svg"><title>bus-default</title><desc>Created with Sketch.</desc><g fill="none" fill-rule="evenodd"><g><g transform="translate(-8 -6) translate(8 6)"><ellipse stroke="#D8D8D8" fill="#D8D8D8" cx="11.5" cy="48.5" rx="1.5" ry=".5"/><path d="M11.5 21.5v26.02" stroke="#979797" stroke-linecap="square"/><circle fill="#61A4F2" cx="11.5" cy="11.5" r="11.5"/><path d="M8.5 13.143c0-.237-.098-.44-.293-.606-.195-.168-.43-.25-.707-.25-.276 0-.512.082-.707.25-.195.167-.293.37-.293.606s.098.438.293.606c.195.166.43.25.707.25.276 0 .512-.084.707-.25.195-.17.293-.37.293-.607zm8 0c0-.237-.098-.44-.293-.606-.195-.168-.43-.25-.707-.25-.276 0-.512.082-.707.25-.195.167-.293.37-.293.606s.098.438.293.606c.195.166.43.25.707.25.276 0 .512-.084.707-.25.195-.17.293-.37.293-.607zm-.36-2.652l-.562-2.57c-.026-.103-.085-.187-.176-.25-.09-.066-.196-.1-.316-.1H7.914c-.12 0-.225.034-.316.1-.09.063-.15.147-.176.25l-.563 2.57c-.027.135.01.253.11.356.098.103.225.154.382.154h8.296c.157 0 .284-.05.383-.154.1-.103.137-.22.11-.355zm-1.765-4.097c0-.09-.036-.165-.11-.228-.072-.062-.16-.094-.265-.094H9c-.104 0-.193.033-.266.095-.073.063-.11.14-.11.228 0 .09.037.165.11.228.073.063.162.094.266.094h5c.104 0 .193-.03.266-.093.073-.062.11-.138.11-.227zm3.125 4.855v4.038h-1v.857c0 .236-.098.438-.293.606-.195.166-.43.25-.707.25-.276 0-.512-.084-.707-.25-.195-.17-.293-.37-.293-.607v-.857h-6v.857c0 .236-.098.438-.293.606-.195.166-.43.25-.707.25-.276 0-.512-.084-.707-.25-.195-.17-.293-.37-.293-.607v-.857h-1v-4.038c0-.5.065-.998.195-1.494l.805-3.04c.047-.348.3-.654.762-.917.46-.264 1.06-.462 1.797-.596.736-.133 1.55-.2 2.44-.2.89 0 1.704.067 2.44.2.738.135 1.337.333 1.798.597.46.263.715.57.762.917l.82 3.04c.12.456.18.954.18 1.494z" fill="#fff"/></g></g></g></svg>