<svg width="14" height="39" viewBox="0 0 14 39" xmlns="http://www.w3.org/2000/svg" xmlns:xlink="http://www.w3.org/1999/xlink"><title>user</title><desc>Created with Sketch.</desc><defs><path d="M11.455 23.44v9.65L7 39l-4.455-5.91v-9.65h-.54C.9 23.44 0 22.533 0 21.433v-9.778C0 10.55.897 9.65 2.006 9.65h9.988c1.108 0 2.006.906 2.006 2.006v9.778c0 1.107-.897 2.005-2.006 2.005h-.54zM7 9.65c2.46 0 4.455-2.16 4.455-4.824C11.455 2.16 9.46 0 7 0S2.545 2.16 2.545 4.826C2.545 7.49 4.54 9.65 7 9.65z" id="a"/><mask id="b" x="0" y="0" width="14" height="39"><use xlink:href="#a"/></mask></defs><g fill="none" fill-rule="evenodd"><g><g><path d="M7 24.88v10.784" stroke="#979797" stroke-linecap="square"/><g stroke="#7ED321" stroke-width="2" fill="#B8E986" transform="translate(-17 -11) translate(17 11)"><use mask="url(#b)" xlink:href="#a"/></g></g></g></g></svg>