<?xml version="1.0" encoding="UTF-8" standalone="no"?>
<svg width="23px" height="50px" viewBox="0 0 23 50" version="1.1" xmlns="http://www.w3.org/2000/svg" xmlns:xlink="http://www.w3.org/1999/xlink">
    <!-- Generator: Sketch 3.7.1 (28215) - http://www.bohemiancoding.com/sketch -->
    <title>bus-default</title>
    <desc>Created with Sketch.</desc>
    <defs></defs>
    <g id="Page-1" stroke="none" stroke-width="1" fill="none" fill-rule="evenodd">
        <g id="bus-icon" transform="translate(-8.000000, -6.000000)">
            <g id="bus-default" transform="translate(8.000000, 6.000000)">
                <ellipse id="Oval-2" stroke="#D8D8D8" fill="#D8D8D8" cx="11.5" cy="48.5" rx="1.5" ry="0.5"></ellipse>
                <path d="M11.5,21.5 L11.5,47.5192242" id="Line" stroke="#979797" stroke-linecap="square"></path>
                <circle id="Oval-1" fill="#61A4F2" cx="11.5" cy="11.5" r="11.5"></circle>
                <path d="M8.5,13.1428571 C8.5,12.90625 8.40234375,12.7042411 8.20703125,12.5368304 C8.01171875,12.3694196 7.77604167,12.2857143 7.5,12.2857143 C7.22395833,12.2857143 6.98828125,12.3694196 6.79296875,12.5368304 C6.59765625,12.7042411 6.5,12.90625 6.5,13.1428571 C6.5,13.3794643 6.59765625,13.5814732 6.79296875,13.7488839 C6.98828125,13.9162946 7.22395833,14 7.5,14 C7.77604167,14 8.01171875,13.9162946 8.20703125,13.7488839 C8.40234375,13.5814732 8.5,13.3794643 8.5,13.1428571 L8.5,13.1428571 Z M16.5,13.1428571 C16.5,12.90625 16.4023437,12.7042411 16.2070312,12.5368304 C16.0117187,12.3694196 15.7760417,12.2857143 15.5,12.2857143 C15.2239583,12.2857143 14.9882812,12.3694196 14.7929687,12.5368304 C14.5976562,12.7042411 14.5,12.90625 14.5,13.1428571 C14.5,13.3794643 14.5976562,13.5814732 14.7929687,13.7488839 C14.9882812,13.9162946 15.2239583,14 15.5,14 C15.7760417,14 16.0117187,13.9162946 16.2070312,13.7488839 C16.4023437,13.5814732 16.5,13.3794643 16.5,13.1428571 L16.5,13.1428571 Z M16.140625,10.4910714 L15.578125,7.91964286 C15.5520833,7.81696429 15.4934896,7.73325893 15.4023438,7.66852679 C15.3111979,7.60379464 15.2057292,7.57142857 15.0859375,7.57142857 L7.9140625,7.57142857 C7.79427083,7.57142857 7.68880208,7.60379464 7.59765625,7.66852679 C7.50651042,7.73325893 7.44791667,7.81696429 7.421875,7.91964286 L6.859375,10.4910714 C6.83333333,10.625 6.86979167,10.7433036 6.96875,10.8459821 C7.06770833,10.9486607 7.1953125,11 7.3515625,11 L15.6484375,11 C15.8046875,11 15.9322917,10.9486607 16.03125,10.8459821 C16.1302083,10.7433036 16.1666667,10.625 16.140625,10.4910714 L16.140625,10.4910714 Z M14.375,6.39285714 C14.375,6.30357143 14.3385417,6.22767857 14.265625,6.16517857 C14.1927083,6.10267857 14.1041667,6.07142857 14,6.07142857 L9,6.07142857 C8.89583333,6.07142857 8.80729167,6.10267857 8.734375,6.16517857 C8.66145833,6.22767857 8.625,6.30357143 8.625,6.39285714 C8.625,6.48214286 8.66145833,6.55803571 8.734375,6.62053571 C8.80729167,6.68303571 8.89583333,6.71428571 9,6.71428571 L14,6.71428571 C14.1041667,6.71428571 14.1927083,6.68303571 14.265625,6.62053571 C14.3385417,6.55803571 14.375,6.48214286 14.375,6.39285714 L14.375,6.39285714 Z M17.5,11.2477679 L17.5,15.2857143 L16.5,15.2857143 L16.5,16.1428571 C16.5,16.3794643 16.4023438,16.5814732 16.2070312,16.7488839 C16.0117188,16.9162946 15.7760417,17 15.5,17 C15.2239583,17 14.9882812,16.9162946 14.7929687,16.7488839 C14.5976562,16.5814732 14.5,16.3794643 14.5,16.1428571 L14.5,15.2857143 L8.5,15.2857143 L8.5,16.1428571 C8.5,16.3794643 8.40234375,16.5814732 8.20703125,16.7488839 C8.01171875,16.9162946 7.77604167,17 7.5,17 C7.22395833,17 6.98828125,16.9162946 6.79296875,16.7488839 C6.59765625,16.5814732 6.5,16.3794643 6.5,16.1428571 L6.5,15.2857143 L5.5,15.2857143 L5.5,11.2477679 C5.5,10.7477679 5.56510417,10.25 5.6953125,9.75446429 L6.5,6.71428571 C6.546875,6.36607143 6.80078125,6.06026786 7.26171875,5.796875 C7.72265625,5.53348214 8.32161458,5.33482143 9.05859375,5.20089286 C9.79557292,5.06696429 10.609375,5 11.5,5 C12.390625,5 13.2044271,5.06696429 13.9414062,5.20089286 C14.6783854,5.33482143 15.2773437,5.53348214 15.7382812,5.796875 C16.1992188,6.06026786 16.453125,6.36607143 16.5,6.71428571 L17.3203125,9.75446429 C17.4401042,10.2098214 17.5,10.7075893 17.5,11.2477679 L17.5,11.2477679 Z" id="Shape" fill="#FFFFFF"></path>
            </g>
        </g>
    </g>
</svg>